<svg width="50" height="50" viewBox="0 0 50 50" fill="none" xmlns="http://www.w3.org/2000/svg">
<path fill-rule="evenodd" clip-rule="evenodd" d="M13.1252 0.96955C16.372 0.248 20.3108 0 25 0C29.6892 0 33.628 0.248 36.8748 0.96955C40.15 1.69743 42.872 2.94 44.966 5.03395C47.06 7.1279 48.3025 9.85005 49.0305 13.1252C49.752 16.372 50 20.3108 50 25C50 29.6892 49.752 33.628 49.0305 36.8748C48.3025 40.15 47.06 42.872 44.966 44.966C42.872 47.06 40.15 48.3025 36.8748 49.0305C33.628 49.752 29.6892 50 25 50C20.3108 50 16.372 49.752 13.1252 49.0305C9.85005 48.3025 7.1279 47.06 5.03395 44.966C2.94 42.872 1.69743 40.15 0.96955 36.8748C0.248 33.628 0 29.6892 0 25C0 20.3108 0.248 16.372 0.96955 13.1252C1.69743 9.85005 2.94 7.1279 5.03395 5.03395C7.1279 2.94 9.85005 1.69743 13.1252 0.96955ZM27.5 15C27.5 13.6193 26.3807 12.5 25 12.5C23.6193 12.5 22.5 13.6193 22.5 15V28.9645L19.2678 25.7323C18.2915 24.756 16.7085 24.756 15.7322 25.7323C14.7559 26.7085 14.7559 28.2915 15.7322 29.2677L23.0148 36.5503C23.0523 36.5878 23.0907 36.6243 23.13 36.6593C23.588 37.175 24.256 37.5 25 37.5C25.744 37.5 26.412 37.175 26.87 36.6593C26.9093 36.6243 26.9477 36.5878 26.9852 36.5503L34.2677 29.2677C35.244 28.2915 35.244 26.7085 34.2677 25.7323C33.2915 24.756 31.7085 24.756 30.7323 25.7323L27.5 28.9645V15Z" fill="#BC3433"/>
</svg>
