<svg width="50" height="50" viewBox="0 0 50 50" fill="none" xmlns="http://www.w3.org/2000/svg">
<path fill-rule="evenodd" clip-rule="evenodd" d="M13.1252 0.96955C16.372 0.248 20.3108 0 25 0C29.6893 0 33.628 0.248 36.8748 0.96955C40.15 1.69743 42.872 2.94 44.966 5.03395C47.06 7.1279 48.3025 9.85005 49.0305 13.1252C49.752 16.372 50 20.3108 50 25C50 29.6893 49.752 33.628 49.0305 36.8748C48.3025 40.15 47.06 42.872 44.966 44.966C42.872 47.06 40.15 48.3025 36.8748 49.0305C33.628 49.752 29.6893 50 25 50C20.3108 50 16.372 49.752 13.1252 49.0305C9.85005 48.3025 7.1279 47.06 5.03395 44.966C2.94 42.872 1.69743 40.15 0.96955 36.8748C0.248 33.628 0 29.6893 0 25C0 20.3108 0.248 16.372 0.96955 13.1252C1.69743 9.85005 2.94 7.1279 5.03395 5.03395C7.1279 2.94 9.85005 1.69743 13.1252 0.96955ZM23.7912 31.1814C23.8321 31.4504 23.9662 31.709 24.1943 31.9572C24.4206 32.2048 24.6896 32.3292 24.9999 32.3292C25.7233 32.3292 26.1258 31.9462 26.2081 31.1814L28.6256 12.6069C28.667 12.2775 28.6878 11.8123 28.6878 11.2127C28.6878 10.2827 28.3682 9.43619 27.7272 8.67082C27.0869 7.90675 26.1776 7.52499 24.9999 7.52499C23.7796 7.52499 22.8611 7.91714 22.2416 8.70142C21.6219 9.46672 21.3121 10.3035 21.3121 11.2128C21.3121 11.7709 21.3316 12.2355 21.373 12.607L23.7912 31.1814ZM24.9999 35.0217C26.074 35.0217 26.9631 35.3736 27.6657 36.0762C28.3878 36.7994 28.75 37.6874 28.75 38.7413C28.75 39.7951 28.3878 40.6843 27.6657 41.4064C26.9411 42.1303 26.0532 42.4913 24.9999 42.4913C23.9468 42.4913 23.0576 42.1199 22.3343 41.3759C21.611 40.6111 21.25 39.7329 21.25 38.7413C21.25 37.7082 21.611 36.8306 22.3343 36.1073C23.0576 35.3846 23.9467 35.0217 24.9999 35.0217Z" fill="#BC3433"/>
</svg>
